<?xml version="1.0" encoding="UTF-8" standalone="no"?>
<svg
   xmlns:dc="http://purl.org/dc/elements/1.1/"
   xmlns:cc="http://creativecommons.org/ns#"
   xmlns:rdf="http://www.w3.org/1999/02/22-rdf-syntax-ns#"
   xmlns:svg="http://www.w3.org/2000/svg"
   xmlns="http://www.w3.org/2000/svg"
   viewBox="0 0 1430.8 408.54666"
   height="408.54666"
   width="1430.8"
   xml:space="preserve"
   id="svg2"
   version="1.1"><metadata
     id="metadata8"><rdf:RDF><cc:Work
         rdf:about=""><dc:format>image/svg+xml</dc:format><dc:type
           rdf:resource="http://purl.org/dc/dcmitype/StillImage" /></cc:Work></rdf:RDF></metadata><defs
     id="defs6" /><g
     transform="matrix(1.3333333,0,0,-1.3333333,0,408.54667)"
     id="g10"><g
       transform="scale(0.1)"
       id="g12"><path
         id="path14"
         style="fill:#e0144d;fill-opacity:1;fill-rule:nonzero;stroke:none"
         d="m 7998.38,526.82 c -380.56,0 -607.81,199.801 -607.81,615.86 V 2475.7 h 202.64 V 1178.21 c 0,-309.241 147.81,-462.53 440.66,-462.53 161.57,0 295.68,49.289 402.46,145.101 V 649.988 C 8324.07,567.84 8176.25,526.82 7998.38,526.82 Z M 10501,2475.7 l -613.16,-848.5 -361.99,500.89 250.23,347.61 h -230.04 l -135.58,-187.82 -135.78,187.82 h -235.44 l 252.58,-351.84 -358.87,-496.66 -613.14,848.5 h -235.35 l 744.59,-1037.38 v -911.5 h 202.52 v 914.22 l 375.65,522.03 376.57,-524.75 v -911.5 h 202.56 v 914.22 L 10731,2475.7 Z M 6146.63,712.672 c 210.08,0 387.87,75.316 530.51,226.098 142.79,150.85 215.53,339.44 215.53,562.95 0,223.52 -72.74,412.04 -215.53,562.9 -142.64,150.76 -320.43,226.11 -530.51,226.11 -210.01,0 -387.79,-75.3 -530.51,-226.11 -142.82,-150.86 -215.41,-339.38 -215.41,-562.9 0,-223.51 72.59,-412.1 215.41,-562.95 142.72,-150.75 320.5,-226.098 530.51,-226.098 z m 0,1763.998 c 272.02,0 495.57,-94.39 675.98,-280.21 180.45,-185.7 272.04,-417.34 272.04,-694.74 0,-277.46 -91.59,-511.642 -272.04,-697.431 C 6642.2,618.34 6418.65,526.82 6146.63,526.82 c -271.97,0 -498.29,91.52 -678.63,277.469 -180.47,185.789 -269.26,419.971 -269.26,697.431 0,277.4 88.79,509.04 269.26,694.74 180.34,185.87 406.66,280.21 678.63,280.21 z M 3826.49,649.988 v 210.793 c 106.67,-95.812 240.89,-145.07 402.4,-145.07 292.78,0 440.57,153.289 440.57,462.499 v 1297.56 h 202.61 V 1142.74 c 0,-416.119 -227.17,-615.92 -607.66,-615.92 -177.89,0 -325.75,41.02 -437.92,123.168" /><path
         id="path16"
         style="fill:#ad1543;fill-opacity:1;fill-rule:nonzero;stroke:none"
         d="m 1682.08,3063.63 c -163.71,-95.16 -305.53,-232.88 -407.03,-408.53 -102.31,-176.93 -150.44,-370.15 -150.34,-560.89 0.08,0 0.08,-0.32 0.15,-0.43 0,0 0,0 -0.07,-0.02 -0.18,-204.29 -55.09,-395.62 -150.556,-560.45 l 707.846,-408.68 v 1939" /><path
         id="path18"
         style="fill:#ef2a59;fill-opacity:1;fill-rule:nonzero;stroke:none"
         d="m 1682.15,1124.63 703.23,406.06 c -192.97,360.57 -81,764.26 -288.93,1124.41 -145.97,252.88 -396.11,418.95 -414.37,408.53 v -1939 h 0.07" /><path
         id="path20"
         style="fill:#ef2a59;fill-opacity:1;fill-rule:nonzero;stroke:none"
         d="m 1682.08,1124.63 h 0.07 -0.07 z" /><path
         id="path22"
         style="fill:#ef2a59;fill-opacity:1;fill-rule:nonzero;stroke:none"
         d="m 2.71094,154.93 c 0.8125,-3.071 1.89062,-5.289 3.10937,-5.969 C 169.934,54.8516 360.129,0.75 563.066,0.648438 767.488,0.75 958.965,55.668 1124.04,151.059 v 0.082 h 0.1 c 0,0.109 0.1,0.109 0.1,0.109 0,0 0.06,0 0.15,0 176.06,101.609 368.08,149.66 557.69,149.91 v 823.47 L 2.71094,154.93" /><path
         id="path24"
         style="fill:#e0144d;fill-opacity:1;fill-rule:nonzero;stroke:none"
         d="m 3217.81,711.309 c -169.06,292.881 -411.06,410.791 -411.06,410.791 -216.19,125.05 -342.75,262.48 -420.57,406.92 -0.25,0.52 -0.45,1.08 -0.8,1.67 L 1682.15,1124.63 3366.63,152.102 c 0.48,0.859 1.49,1.918 1.49,2.507 -0.61,189.172 -48.81,381 -150.31,556.7" /><path
         id="path26"
         style="fill:#ad1543;fill-opacity:1;fill-rule:nonzero;stroke:none"
         d="M 1682.08,1124.63 V 301.16 c 197.58,0.199 392.51,-51.39 563.7,-150.019 h 0.18 c 0,0 0.05,-0.082 0,-0.289 0,-0.09 0,-0.184 0,-0.243 0,0 225.62,-150.6675938 561.12,-150.609 283.18,0 544.02,125.172 559.55,152.102 L 1682.15,1124.63 h -0.07" /><path
         id="path28"
         style="fill:#e0144d;fill-opacity:1;fill-rule:nonzero;stroke:none"
         d="m 1682.08,1124.63 -707.846,408.68 c -0.203,-0.32 -0.449,-0.72 -0.574,-1.07 -98.508,-169.57 -240.066,-311.28 -409.722,-409.56 -0.106,0 -0.36,0.09 -0.481,0.16 0,0 -0.055,0 -0.055,0.06 0,0 0,0 -0.066,0 0.121,-0.22 0.066,-0.22 -0.043,-0.06 C 397.91,1027.62 254.535,889.32 152.328,712.172 15.8984,475.832 -9.48047,199.27 2.71094,154.93 L 1682.08,1124.63 v 0" /></g></g></svg>